<svg width="32" height="32" xmlns="http://www.w3.org/2000/svg" xmlns:xlink="http://www.w3.org/1999/xlink" xml:space="preserve" overflow="hidden"><g transform="translate(-19 -187)"><path d="M26.6667 214.333 26.6667 191.667 35 191.667 35 198.667 43.3333 198.667 43.3333 214.333 26.6667 214.333ZM37 192.5 41.1667 196.667 37 196.667 37 192.5ZM37 189.667 24.6667 189.667 24.6667 216.333 45.3333 216.333 45.3333 197 37 189.667Z" fill="#BFBFBF"/><path d="M28.6667 202 41.3333 202 41.3333 203.333 28.6667 203.333Z" fill="#BFBFBF"/><path d="M28.6667 199.333 33 199.333 33 200.667 28.6667 200.667Z" fill="#BFBFBF"/><path d="M28.6667 204.667 41.3333 204.667 41.3333 206 28.6667 206Z" fill="#BFBFBF"/><path d="M28.6667 207.333 41.3333 207.333 41.3333 208.667 28.6667 208.667Z" fill="#BFBFBF"/><path d="M28.6667 210 41.3333 210 41.3333 211.333 28.6667 211.333Z" fill="#BFBFBF"/></g></svg>