<svg width="35" height="35" xmlns="http://www.w3.org/2000/svg" xmlns:xlink="http://www.w3.org/1999/xlink" xml:space="preserve" overflow="hidden"><g transform="translate(-17 -247)"><path d="M49.0104 253.927 25.6771 253.927C24.875 253.927 24.2188 254.583 24.2188 255.385L24.2188 260.672C24.6198 260.562 25.0938 260.49 25.5312 260.49 25.8229 260.49 26.1146 260.526 26.4062 260.562L26.4062 256.115 48.2812 256.115 48.2812 269.969 35.9219 269.969 33.8438 272.156 49.0104 272.156C49.8125 272.156 50.4688 271.5 50.4688 270.698L50.4688 255.385C50.4688 254.583 49.8125 253.927 49.0104 253.927" fill="#BFBFBF"/><path d="M25.5677 268.146C27.2812 268.146 28.6667 266.76 28.6667 265.047 28.6667 263.333 27.2812 261.948 25.5677 261.948 23.8542 261.948 22.4688 263.333 22.4688 265.047 22.4323 266.76 23.8542 268.146 25.5677 268.146" fill="#BFBFBF"/><path d="M37.4896 264.536C37.0156 263.807 36.0677 263.625 35.3385 264.062 35.1927 264.135 35.1198 264.281 35.0469 264.354L29.724 269.896C29.2135 269.641 28.6667 269.422 28.1198 269.24 27.2812 269.094 26.4062 268.911 25.5677 268.911 24.7292 268.911 23.8542 269.057 23.0156 269.312 21.776 269.641 20.6823 270.26 19.7708 271.026 19.5521 271.245 19.3698 271.573 19.2969 271.865L18.5312 275.073 29.4323 275.073 29.4323 275.036 32.5312 271.427 37.3073 266.396C37.7448 265.958 37.8906 265.12 37.4896 264.536" fill="#BFBFBF"/></g></svg>